<?xml version="1.0" encoding="utf-8"?>
<!-- Generator: Adobe Illustrator 23.0.3, SVG Export Plug-In . SVG Version: 6.00 Build 0)  -->
<svg version="1.1" id="Layer_1" xmlns="http://www.w3.org/2000/svg" xmlns:xlink="http://www.w3.org/1999/xlink" x="0px" y="0px"
	 viewBox="0 0 1000 1000" style="enable-background:new 0 0 1000 1000;" xml:space="preserve">
<style type="text/css">
	.st0{fill:#55BC74;}
	.st1{fill:#005356;}
	.st2{fill:#E57F25;}
</style>
<g>
	<g>
		<path class="st0" d="M368.1,572.5c-3.5,0-6.6-0.5-9.3-1.4c-2.7-0.9-5.1-2.3-7-4.1c-1.9-1.8-3.4-4.1-4.4-6.8
			c-1-2.7-1.5-5.9-1.5-9.5v-21.6h18.5v11.3H359v10.3c0,3.7,0.8,6.4,2.5,8c1.6,1.7,3.8,2.5,6.6,2.5h136.8c-0.5-0.9-1-1.8-1.4-2.8
			c-1.3-3.1-1.9-6.6-1.9-10.5c0-3.8,0.6-7.3,1.9-10.3c1.3-3,3-5.6,5.3-7.7c2.3-2.1,5.1-3.7,8.3-4.8c3.2-1.1,6.7-1.7,10.5-1.7
			c3.8,0,7.3,0.5,10.6,1.6c3.2,1.1,5.9,2.7,8.2,4.8c2.3,2.1,4,4.6,5.3,7.7c1.3,3,1.9,6.5,1.9,10.4c0,3.9-0.6,7.4-1.9,10.5
			c-0.4,1-0.9,1.9-1.4,2.8h12.1c1.6,0,2.9,0.6,4,1.7c1.1,1.1,1.7,2.4,1.7,4c0,1.6-0.6,2.9-1.7,4c-1.1,1.1-2.4,1.7-4,1.7H368.1z
			 M532.9,560.2c1.6-0.7,2.9-1.6,4-2.7c1.1-1.1,2-2.5,2.5-4.2c0.6-1.6,0.9-3.4,0.9-5.4c0-2-0.3-3.8-0.9-5.5c-0.6-1.6-1.4-3-2.5-4.1
			c-1.1-1.1-2.4-2-4-2.6c-1.6-0.6-3.3-0.9-5.3-0.9c-1.9,0-3.6,0.3-5.2,1c-1.6,0.6-2.9,1.6-4,2.7c-1.1,1.2-2,2.6-2.6,4.2
			c-0.6,1.6-0.9,3.4-0.9,5.3c0,2,0.3,3.8,0.9,5.4c0.6,1.6,1.5,3,2.6,4.2c1.1,1.1,2.5,2.1,4,2.7c1.6,0.7,3.3,1,5.1,1
			C529.5,561.2,531.3,560.8,532.9,560.2z"/>
		<path class="st0" d="M577.8,567.3c-1.7,1.5-3.7,2.7-6.1,3.6c-2.7,1-5.8,1.6-9.4,1.6v-11.3c2.8,0,5-0.8,6.5-2.5
			c1.6-1.7,2.3-4.1,2.3-7.3v-39.2h13.2v39.2c0,3.2,0.8,5.6,2.3,7.3c1.6,1.7,3.7,2.5,6.5,2.5c1.6,0,2.9,0.6,4,1.7s1.7,2.4,1.7,4
			c0,1.6-0.6,2.9-1.7,4c-1.1,1.1-2.4,1.7-4,1.7h-0.1c-3.5,0-6.6-0.6-9.2-1.6C581.6,569.9,579.5,568.7,577.8,567.3z"/>
		<path class="st0" d="M602.1,547.9c0-3.8,0.6-7.3,1.9-10.3c1.3-3,3-5.6,5.3-7.7c2.3-2.1,5.1-3.7,8.3-4.8c3.2-1.1,6.7-1.7,10.5-1.7
			c3.8,0,7.3,0.6,10.5,1.7c3.2,1.1,6,2.7,8.2,4.8c2.3,2.1,4,4.6,5.3,7.7c1.3,3.1,1.9,6.5,1.9,10.4c0,3.9-0.6,7.4-1.9,10.5
			c-1.3,3.1-3.1,5.6-5.3,7.7c-2.3,2.1-5,3.6-8.2,4.7c-3.2,1.1-6.7,1.7-10.5,1.7c-3.8,0-7.3-0.6-10.5-1.7c-3.1-1-5.7-2.5-7.9-4.5l0,0
			c-1.9,1.9-4.2,3.4-7,4.5c-2.7,1-5.8,1.6-9.4,1.6v-11.3c2.8,0,4.9-0.8,6.5-2.5c1.6-1.7,2.3-4.1,2.3-7.3V547.9z M633.4,560.2
			c1.6-0.6,2.9-1.5,4-2.7c1.1-1.2,2-2.6,2.5-4.2c0.6-1.6,0.9-3.4,0.9-5.4c0-2-0.3-3.8-0.9-5.4c-0.6-1.6-1.5-3-2.6-4.2
			c-1.1-1.1-2.4-2-4-2.6c-1.6-0.6-3.3-0.9-5.3-0.9c-1.9,0-3.6,0.3-5.2,1c-1.6,0.6-2.9,1.6-4,2.8s-2,2.6-2.6,4.2
			c-0.6,1.6-0.9,3.4-0.9,5.3c0,2,0.3,3.8,0.9,5.4c0.6,1.6,1.5,3,2.6,4.2c1.1,1.2,2.5,2.1,4,2.7c1.6,0.6,3.3,1,5.1,1
			C630.1,561.1,631.8,560.8,633.4,560.2z"/>
	</g>
	<g>
		<path class="st1" d="M379,497.3v-65.2h10.4v65.2H379z M397,473l-6.2-29.3H388l0.5-11.6h6.7l5.7,28.7h0.4l1.1,12.2H397z M399.6,473
			l1.4-12.2h0.6l5.7-28.7h6.7l0.5,11.6h-2.8l-6.2,29.3H399.6z M412.9,497.3v-65.2h10.4v65.2H412.9z"/>
		<path class="st1" d="M435.6,497.3v-10.3h19.2v10.3H435.6z M438.4,458.9v-10.3h26.8v10.3H438.4z M453.9,497.3v-45.9h11.3v45.9
			H453.9z M464.2,497.3v-10.3h15.6v10.3H464.2z"/>
		<path class="st1" d="M487.9,438.7v-10.3h14.8v10.3H487.9z M518.7,498.3c-5.9,0-10.2-1.6-12.8-4.9c-2.6-3.2-3.9-8.4-3.9-15.6v-49.4
			h11.3v48.9c0,2.2,0.2,4.1,0.7,5.5c0.5,1.4,1.3,2.5,2.6,3.1c1.3,0.7,3.2,1,5.8,1c2.6,0,6-0.6,10-1.7l1.3,11.1
			c-2.5,0.7-5,1.2-7.4,1.5C523.9,498.1,521.4,498.3,518.7,498.3z"/>
		<path class="st1" d="M559.1,498.3c-5.1,0-9.1-1.3-12-3.8c-2.8-2.5-4.2-6.1-4.2-10.7c0-5.3,1.9-9.4,5.7-12.3
			c3.8-2.8,9.2-4.3,16.1-4.3c2.8,0,5.2,0.2,7.3,0.5c2.1,0.3,4.1,0.8,6,1.4l-2,8.5c-2-0.5-3.8-0.7-5.6-0.8c-1.7-0.1-3.5-0.1-5.4-0.1
			c-7.2,0-10.8,2.1-10.8,6.4c0,1.9,0.6,3.3,1.9,4.3c1.3,1,3.1,1.5,5.5,1.5c2.8,0,5.2-0.5,7.1-1.5c1.9-1,3.3-2.3,4.3-3.9
			c0.9-1.6,1.4-3.2,1.4-4.9v-3.9l2.2,12.5h-3.9l1.6-1.5c-0.1,2.8-0.7,5.2-2,7.1c-1.2,1.9-3,3.3-5.2,4.2
			C564.9,497.8,562.2,498.3,559.1,498.3z M575.9,497.8l-0.9-14.4l-0.6-5.4v-10.7c0-2.8-1.1-4.9-3.4-6.3c-2.2-1.3-5.6-2.1-10-2.2
			l-12.1-0.3l0.9-10.2l10.3,0.1c8.5,0.1,14.8,1.9,19,5.2c4.1,3.4,6.2,8.2,6.2,14.7v18.9l7.3,1v9.2L575.9,497.8z"/>
		<path class="st1" d="M596.7,468.6v-9.8h45.9v9.8H596.7z M611.7,497.3v-44.5c0-16.8,7.9-25.3,23.8-25.3c3.6,0,7.2,0.3,10.6,0.9
			l-1.1,10.3c-2-0.2-3.8-0.4-5.3-0.5c-1.5-0.1-3-0.1-4.4-0.1c-8.2,0-12.3,4.7-12.3,14.2v45H611.7z"/>
	</g>
	<circle class="st2" cx="458.8" cy="435.8" r="7.1"/>
	<ellipse class="st2" cx="526.3" cy="511.3" rx="8.9" ry="7.8"/>
</g>
</svg>
